Coordinates
version=1
nRows=10
nColumns=22
inDegrees=yes

Units are S.I. units (second, meters, Newtons, ...)
If the header above contains a line with 'inDegrees', this indicates whether rotational values are in degrees (yes) or radians (no).

endheader
time	pelvis_tilt	pelvis_list	pelvis_rotation	pelvis_tx	pelvis_ty	pelvis_tz	hip_flexion_r	hip_adduction_r	hip_rotation_r	knee_angle_r	ankle_angle_r	subtalar_angle_r	hip_flexion_l	hip_adduction_l	hip_rotation_l	knee_angle_l	ankle_angle_l	subtalar_angle_l	lumbar_extension	lumbar_bending	lumbar_rotation
      5.85000000	     -4.74678234	     -1.64736818	    277.28134136	     -0.46482035	      0.99299141	     -0.01092177	     21.93343752	      8.53746612	     12.26885286	    -24.15370041	      2.34253411	      7.46895854	     -9.05380322	      4.68608873	     14.79735120	    -35.12108585	     -1.04062169	      0.93240744	    -11.64995531	      6.45884811	     -0.61501169
      5.86000000	     -4.70033494	     -1.69509761	    278.15710678	     -0.46312943	      0.99389601	     -0.00332246	     21.57951677	      8.33856121	     11.67576979	    -24.51273375	      2.86302067	      6.64047128	     -8.06385770	      4.43632244	     14.01213190	    -37.11561221	     -2.46635225	      3.28319080	    -11.55780980	      6.53020413	     -0.67001117
      5.87000000	     -4.64887092	     -1.71383785	    279.09561561	     -0.46142891	      0.99476594	      0.00395668	     21.23761211	      8.12330837	     11.07384732	    -24.81134213	      3.38725201	      5.91432069	     -6.89825029	      4.14065343	     13.19282834	    -39.24489206	     -3.66971850	      5.84236684	    -11.46669521	      6.57725342	     -0.77585883
      5.88000000	     -4.61130658	     -1.71481942	    280.08959964	     -0.45975110	      0.99559472	      0.01093363	     20.90277165	      7.91591144	     10.46583681	    -25.05658242	      3.90090539	      5.28518213	     -5.57480901	      3.77033902	     12.33140736	    -41.48420453	     -4.58539748	      8.45599578	    -11.38551365	      6.62263545	     -0.91906155
      5.89000000	     -4.60368963	     -1.72835169	    281.12186362	     -0.45813529	      0.99641606	      0.01765065	     20.54865581	      7.74081509	      9.82906602	    -25.25017284	      4.37637412	      4.75545026	     -4.14559711	      3.29809780	     11.42490495	    -43.78447979	     -5.19197219	     10.91088058	    -11.34224953	      6.68606276	     -1.05957340
      5.90000000	     -4.63570664	     -1.70628973	    282.17460089	     -0.45663249	      0.99711537	      0.02413412	     20.23683695	      7.61005843	      9.19773497	    -25.40940955	      4.86595905	      4.26606431	     -2.57117373	      2.72181674	     10.47226856	    -46.11544986	     -5.45837862	     12.88096227	    -11.27144550	      6.76468788	     -1.18999609
      5.91000000	     -4.70237347	     -1.72603155	    283.22219603	     -0.45524388	      0.99784139	      0.03041536	     19.87837706	      7.54007224	      8.58682968	    -25.52075543	      5.30265644	      3.85481222	     -0.97408552	      2.04345005	      9.50622089	    -48.39655192	     -5.44229628	     14.29407538	    -11.26592005	      6.87142152	     -1.27738236
      5.92000000	     -4.79502321	     -1.77310679	    284.24405209	     -0.45397595	      0.99856452	      0.03650202	     19.49487879	      7.52491480	      8.01044402	    -25.59652034	      5.71169514	      3.49605689	      0.63542650	      1.28536628	      8.53929708	    -50.58249930	     -5.14823190	     15.02388726	    -11.30781178	      6.99628796	     -1.29935703
      5.93000000	     -4.91419524	     -1.87263621	    285.22832737	     -0.45279681	      0.99934308	      0.04244728	     19.04917858	      7.56646165	      7.44228656	    -25.61243264	      6.04930057	      3.21486879	      2.19918426	      0.44922700	      7.58358657	    -52.61871478	     -4.56309045	     15.05822605	    -11.41734829	      7.15170969	     -1.23851609
      5.94000000	     -5.03325818	     -1.93194391	    286.15749274	     -0.45173554	      1.00003630	      0.04827563	     18.63679262	      7.62639587	      6.94399205	    -25.59223810	      6.43443075	      2.88658740	      3.79582066	     -0.39902803	      6.63712442	    -54.48536972	     -3.76856043	     14.47099447	    -11.48770975	      7.27865045	     -1.11845446
